<svg class="dot storyIcon" width="105" height="33" viewBox="0 0 110 35" fill="none" xmlns="http://www.w3.org/2000/svg" style="translate: none; rotate: none; scale: none; transform: translate(0px, 0px); opacity: 1;"><circle cx="105" cy="5" r="5" transform="rotate(90 105 5)" fill="#E7439C" fill-opacity="0.31"></circle><circle cx="80" cy="5" r="5" transform="rotate(90 80 5)" fill="#E7439C" fill-opacity="0.31"></circle><circle cx="55" cy="5" r="5" transform="rotate(90 55 5)" fill="#E7439C" fill-opacity="0.31"></circle><circle cx="30" cy="5" r="5" transform="rotate(90 30 5)" fill="#E7439C" fill-opacity="0.31"></circle><circle cx="5" cy="5" r="5" transform="rotate(90 5 5)" fill="#E7439C" fill-opacity="0.31"></circle><circle cx="105" cy="30" r="5" transform="rotate(90 105 30)" fill="#E7439C" fill-opacity="0.31"></circle><circle cx="80" cy="30" r="5" transform="rotate(90 80 30)" fill="#E7439C" fill-opacity="0.31"></circle><circle cx="55" cy="30" r="5" transform="rotate(90 55 30)" fill="#E7439C" fill-opacity="0.31"></circle><circle cx="30" cy="30" r="5" transform="rotate(90 30 30)" fill="#E7439C" fill-opacity="0.31"></circle><circle cx="5" cy="30" r="5" transform="rotate(90 5 30)" fill="#E7439C" fill-opacity="0.31"></circle></svg>